<?xml version="1.0" encoding="UTF-8"?>
<svg id="Layer_1" data-name="Layer 1" xmlns="http://www.w3.org/2000/svg" viewBox="0 0 1080 1080">
  <defs>
    <style>
      .cls-1, .cls-2 {
        stroke: #231f20;
        stroke-miterlimit: 10;
        stroke-width: 9px;
      }

      .cls-1, .cls-3 {
        fill: #fff;
      }

      .cls-4 {
        fill: #000;
      }

      .cls-4, .cls-5, .cls-3 {
        stroke-width: 0px;
      }

      .cls-5 {
        fill: #231f20;
      }

      .cls-2 {
        fill: none;
      }
    </style>
  </defs>
  <path class="cls-1" d="M20.32,833.56S208.04,540,177.14,108.64c-.89-12.48,97.51,724.93,97.51,724.93H20.32Z"/>
  <g>
    <g>
      <polygon class="cls-4" points="838.62 841.3 961.84 843.29 900.6 704.31 780.88 691.27 838.62 841.3"/>
      <polygon class="cls-4" points="472.58 657.68 515.02 836.04 692.11 838.92 640.21 675.94 472.58 657.68"/>
      <polygon class="cls-3" points="640.21 675.94 692.11 838.92 838.62 841.3 780.88 691.27 640.21 675.94"/>
      <polygon class="cls-3" points="961.84 843.29 1066.91 845 1003.73 715.54 900.6 704.31 961.84 843.29"/>
      <polygon class="cls-3" points="472.58 657.68 269.39 635.54 296.66 832.5 515.02 836.04 472.58 657.68"/>
    </g>
    <polygon class="cls-4" points="640.21 675.94 780.88 691.27 730.53 560.44 595.5 535.52 640.21 675.94"/>
    <polygon class="cls-3" points="780.88 691.27 900.6 704.31 846.65 581.87 730.53 560.44 780.88 691.27"/>
    <polygon class="cls-3" points="595.5 535.52 436.53 506.19 472.58 657.68 640.21 675.94 595.5 535.52"/>
    <polygon class="cls-4" points="436.53 506.19 246.64 471.14 269.39 635.54 472.58 657.68 436.53 506.19"/>
    <polygon class="cls-4" points="900.6 704.31 1003.73 715.54 947.57 600.49 846.65 581.87 900.6 704.31"/>
    <polygon class="cls-4" points="730.53 560.44 846.65 581.87 798.76 473.18 686.24 445.35 730.53 560.44"/>
    <polygon class="cls-4" points="556.57 413.28 405.53 375.92 436.53 506.19 595.5 535.52 556.57 413.28"/>
    <polygon class="cls-3" points="595.5 535.52 730.53 560.44 686.24 445.35 556.57 413.28 595.5 535.52"/>
    <polygon class="cls-3" points="846.65 581.87 947.57 600.49 897.33 497.56 798.76 473.18 846.65 581.87"/>
    <polygon class="cls-3" points="405.53 375.92 227.35 331.86 246.64 471.14 436.53 506.19 405.53 375.92"/>
    <polygon class="cls-3" points="522.38 305.9 378.6 262.72 405.53 375.92 556.57 413.28 522.38 305.9"/>
    <polygon class="cls-4" points="686.24 445.35 646.97 343.32 522.38 305.9 556.57 413.28 686.24 445.35"/>
    <polygon class="cls-3" points="686.24 445.35 798.76 473.18 755.97 376.05 646.97 343.32 686.24 445.35"/>
    <polygon class="cls-4" points="798.76 473.18 897.33 497.56 852.13 404.93 755.97 376.05 798.76 473.18"/>
    <polygon class="cls-4" points="378.6 262.72 210.81 212.33 227.35 331.86 405.53 375.92 378.6 262.72"/>
    <polygon class="cls-4" points="758.57 376.84 720.03 289.61 611.92 252.24 646.97 343.32 758.57 376.84"/>
    <polygon class="cls-3" points="717.49 288.74 755.97 376.05 852.13 404.93 811.23 321.14 717.49 288.74"/>
    <polygon class="cls-4" points="522.38 305.9 492.11 210.83 354.97 163.43 378.6 262.72 522.38 305.9"/>
    <polygon class="cls-3" points="646.97 343.32 611.92 252.24 492.11 210.83 522.38 305.9 646.97 343.32"/>
    <polygon class="cls-3" points="354.97 163.43 196.45 108.64 210.81 212.33 378.6 262.72 354.97 163.43"/>
    <polygon class="cls-2" points="1066.91 845 296.66 832.5 196.45 108.64 811.23 321.14 1066.91 845"/>
    <path class="cls-5" d="M285.67,178.83l49.95,16.33,8.83,40.04c-5.67-.48-12.32-1.49-19.96-3.04-7.71-1.56-15.95-3.68-24.74-6.38-11.7-3.59-22.33-8.23-31.82-13.91-9.54-5.71-17.37-12.33-23.43-19.83-6.05-7.48-9.77-15.65-11.15-24.46-1.23-7.83.2-13.7,4.25-17.65,4-3.9,10.46-5.74,19.34-5.55,8.76.19,19.75,2.55,32.94,7.04,7.18,2.45,14.04,5.17,20.58,8.17,6.51,2.98,12.22,5.9,17.14,8.75l-6.38,11.79c-4.37-2.64-8.84-5.01-13.41-7.13-4.59-2.12-9.48-4.05-14.66-5.78-6.98-2.33-12.43-3.24-16.35-2.72-3.95.52-6.61,2.09-7.98,4.73-1.38,2.65-1.72,5.99-1,10.01.83,4.63,2.6,8.9,5.31,12.79,2.72,3.9,6.3,7.35,10.73,10.33,4.42,2.98,9.54,5.38,15.33,7.2,1.9.6,4.21,1.24,6.91,1.93,2.69.69,4.71,1.13,6.07,1.33l-2.39-11.75-21.13-6.76-2.94-15.46Z"/>
    <path class="cls-3" d="M481.61,280.64l-61.73-18.96-18.85-71.5,59.64,20.29,4.39,14.7-32.28-10.76,3.06,10.95,30.09,9.88,4.51,15.2-30.31-9.73,3.81,13.6,32.9,10.36,4.77,15.99Z"/>
    <path class="cls-3" d="M715.83,352.58l-9.09-13.69-25.57-8.02,1.09,11.39-24.28-7.46-.08-57.47,27.84,9.48,52.68,72.7-22.59-6.94ZM696.27,322.94l-7.79-11.73c-.83-1.26-2.03-3.07-3.58-5.41-1.55-2.34-3.13-4.75-4.72-7.22-1.59-2.47-2.86-4.48-3.81-6.04.28,1.34.57,2.98.87,4.92.3,1.95.57,3.87.82,5.77.25,1.91.43,3.5.55,4.76l1.01,9.61,16.65,5.35Z"/>
    <path class="cls-5" d="M570,308.35l-35.77-55.84-.56-.19c.59,1.32,1.34,3.08,2.26,5.31.92,2.23,1.88,4.63,2.9,7.21,1.02,2.58,1.93,5.05,2.72,7.41l10.28,30.53-22.65-6.95-22.44-69.16,32.83,11.16,35.34,53.94.49.16.96-41.59,30.53,10.38,25.34,66.74-21.48-6.59-11.11-30.17c-.78-2.12-1.57-4.39-2.37-6.79-.8-2.39-1.52-4.64-2.17-6.73-.65-2.09-1.14-3.73-1.48-4.92l-.53-.17.18,43.42-23.27-7.14Z"/>
    <path class="cls-5" d="M764.9,313.97c6.25,2.13,11.72,4.54,16.43,7.26,4.7,2.71,8.69,5.72,11.98,9.04,3.29,3.32,5.88,6.96,7.76,10.92,1.18,2.47,1.79,4.58,1.84,6.32.05,1.75-.4,3.15-1.34,4.22-.95,1.07-2.33,1.83-4.16,2.28l32.84,33.72-20.88-6.41-25.56-27.84-4.79-1.53,10.75,23.34-19.36-5.95-28.48-63.19,22.97,7.81ZM770.36,326.3l-3.71-1.24,6.5,14.12,3.54,1.15c2.89.94,4.98,1.15,6.28.61,1.3-.53,1.27-2.24-.08-5.13-.93-1.99-2.4-3.79-4.43-5.4-2.03-1.62-4.72-2.99-8.1-4.12Z"/>
    <path class="cls-5" d="M309.8,366.38c8.31,2,15.58,4.59,21.87,7.77,6.26,3.17,11.3,6.77,15.13,10.8,3.84,4.04,6.24,8.41,7.21,13.12,1.13,5.48-.07,9.75-3.61,12.8-3.57,3.09-8.59,5.44-15.06,7.04l20.57,16.59c1.61-1.98,2.92-4.27,3.92-6.89,1-2.6,1.61-5.41,1.83-8.43l35.38,7.81c-.38,6.04-1.8,11.69-4.29,16.95-2.52,5.32-5.54,9.59-9.08,12.8l32.82,26.64-45.08-8.75-10.5-8.91c-3.05.92-6.13,1.71-9.23,2.37-3.12.66-7.01.9-11.68.72-4.7-.18-10.91-1.02-18.67-2.52-10.98-2.12-20.6-5.32-28.79-9.59-8.23-4.29-14.74-9.15-19.5-14.58-4.75-5.42-7.55-10.92-8.4-16.49-.62-4.08-.16-7.64,1.38-10.67,1.53-3.01,4.04-5.46,7.54-7.37,3.47-1.89,7.85-3.24,13.13-4.04-2.96-2.7-5.57-5.38-7.82-8.05-2.25-2.67-4.07-5.38-5.47-8.13-1.39-2.74-2.32-5.58-2.79-8.51-.71-4.46.32-8.01,3.08-10.66,2.74-2.63,7.18-4.14,13.28-4.55,6.05-.4,13.67.51,22.84,2.72ZM309.4,422.58c-1.59.58-2.87,1.32-3.84,2.22-.97.9-1.61,1.94-1.93,3.11-.32,1.18-.35,2.48-.1,3.92.51,2.92,2.37,5.62,5.59,8.07,3.22,2.46,7.14,4.16,11.75,5.09,3.58.73,6.65,1.02,9.21.87,2.55-.15,4.45-.51,5.71-1.1l-26.4-22.2ZM312.28,382.72c-2.56-.6-4.72-.59-6.46.03-1.75.62-2.4,2.15-1.97,4.6.34,1.93,1.49,3.95,3.44,6.06,1.95,2.11,4.13,4.12,6.54,6.02,3.24-.62,5.59-1.71,7.05-3.27,1.46-1.55,1.99-3.33,1.62-5.33-.4-2.13-1.55-3.85-3.45-5.19-1.9-1.33-4.16-2.3-6.78-2.91Z"/>
    <path class="cls-3" d="M316.61,275.07c-3.94-1.12-7.36-1.58-10.26-1.35-2.91.22-5.29,1.08-7.12,2.57-1.84,1.5-3.07,3.62-3.69,6.38-.62,2.77-.57,6.13.16,10.09.99,5.39,2.85,10.23,5.58,14.49,2.74,4.27,6.38,7.92,10.91,10.93,4.52,3.01,9.91,5.33,16.13,6.97,5.61,1.47,10.87,2.35,15.78,2.63,4.88.28,9.72.35,14.52.22l4.3,19.82c-5.09.33-10.44.15-16.06-.56-5.66-.71-11.79-1.9-18.41-3.58-13.95-3.54-25.86-8.41-35.62-14.6-9.8-6.21-17.46-13.31-22.93-21.26-5.45-7.92-8.89-16.29-10.32-25.08-1.06-6.51-.62-12.03,1.28-16.58,1.88-4.51,5.14-7.92,9.76-10.24,4.57-2.3,10.48-3.36,17.7-3.21,7.15.15,15.5,1.64,25.05,4.44,5.87,1.72,12.12,3.98,18.74,6.76,6.59,2.77,13.11,6.02,19.58,9.74l-6.11,14.4c-4.69-2.66-9.4-5.13-14.14-7.39-4.75-2.27-9.69-4.14-14.84-5.61Z"/>
    <path class="cls-5" d="M503.09,386.94l-9.79-16.94-35.33-9.25-1.38,14.36-33.89-8.62,15.23-72.04,38.08,11.16,58.14,89.21-31.05-7.9ZM482.1,350.3l-8.35-14.45c-.89-1.55-2.17-3.77-3.83-6.65-1.66-2.88-3.33-5.83-5.01-8.87-1.68-3.03-3.01-5.5-3.99-7.42.06,1.66.06,3.68,0,6.09s-.17,4.8-.3,7.17c-.13,2.37-.28,4.35-.43,5.93l-1.02,12,22.94,6.21Z"/>
    <path class="cls-5" d="M757.14,429.2c1.69,3.96,2.23,7.44,1.6,10.45-.63,3.03-2.77,5.08-6.43,6.14-3.69,1.07-9.24.66-16.69-1.24-3.75-.96-7.12-1.96-10.09-3-2.99-1.04-5.87-2.24-8.64-3.59-2.77-1.35-5.74-2.95-8.89-4.79l-7.27-18.18c5.36,3.26,10.55,6.03,15.57,8.32,4.99,2.28,9.31,3.9,12.96,4.86,2.19.58,3.88.81,5.07.71,1.19-.11,1.94-.49,2.26-1.14.32-.65.25-1.51-.2-2.59-.53-1.27-1.47-2.49-2.81-3.63-1.34-1.15-3.28-2.5-5.82-4.04-2.54-1.55-5.87-3.52-10-5.92-3.54-2.09-6.81-4.15-9.81-6.15-3-2.01-5.73-4.12-8.18-6.32-2.45-2.2-4.61-4.58-6.47-7.14-1.86-2.55-3.41-5.38-4.65-8.47-1.85-4.62-2.08-8.1-.71-10.44,1.36-2.33,4.05-3.58,8.04-3.76,3.96-.18,8.91.61,14.84,2.35,5.17,1.52,10.01,3.39,14.53,5.61,4.5,2.21,8.63,4.42,12.4,6.66l-.23,12.7c-3.95-2.34-7.73-4.39-11.35-6.14-3.63-1.76-6.87-3.05-9.71-3.87-1.86-.53-3.31-.77-4.33-.71-1.03.06-1.68.35-1.97.87-.29.52-.26,1.22.1,2.09.45,1.11,1.35,2.24,2.69,3.4,1.34,1.16,3.37,2.57,6.09,4.25,2.71,1.67,6.38,3.88,10.99,6.61,4.53,2.65,8.53,5.25,12,7.81,3.46,2.56,6.44,5.3,8.94,8.23,2.5,2.93,4.56,6.28,6.17,10.06Z"/>
    <path class="cls-3" d="M588.1,339.77c8.3,2.43,15.44,5.24,21.44,8.44,5.98,3.19,10.9,6.76,14.78,10.75,3.88,3.99,6.71,8.38,8.5,13.21,1.12,3.02,1.53,5.6,1.23,7.76-.3,2.16-1.22,3.92-2.77,5.28-1.56,1.37-3.66,2.36-6.31,2.99l38.79,40.69-27.87-7.07-29.91-33.74-6.42-1.72,10.02,28.79-26.1-6.62-26-77.71,30.62,8.96ZM593.04,354.81l-4.95-1.41,6.02,17.29,4.73,1.31c3.86,1.07,6.75,1.24,8.7.53,1.94-.71,2.27-2.83,1.01-6.36-.87-2.43-2.54-4.6-5.03-6.53-2.49-1.93-5.98-3.54-10.48-4.82Z"/>
    <path class="cls-3" d="M367.88,533.91c-4.45-.73-8.3-.64-11.53.27-3.26.92-5.88,2.61-7.87,5.06-2,2.47-3.3,5.68-3.87,9.64-.58,3.98-.38,8.66.61,14.02,1.34,7.31,3.64,13.66,6.9,19.03,3.27,5.38,7.52,9.7,12.75,12.93,5.22,3.23,11.37,5.31,18.43,6.24,6.36.84,12.29.92,17.79.25,5.46-.67,10.87-1.61,16.22-2.84l5.8,26.76c-5.66,1.58-11.65,2.5-17.98,2.76-6.37.25-13.31-.06-20.82-.96-15.86-1.89-29.5-6.12-40.79-12.67s-20.31-14.9-26.82-24.87c-6.49-9.93-10.7-20.92-12.65-32.91-1.44-8.86-1.16-16.66.82-23.4,1.96-6.66,5.51-12.08,10.63-16.26,5.06-4.14,11.66-6.83,19.77-8.11,8.02-1.27,17.43-.94,28.21.96,6.63,1.17,13.69,2.99,21.19,5.45,7.45,2.45,14.85,5.58,22.21,9.38l-6.08,21.16c-5.35-2.7-10.71-5.12-16.09-7.26-5.4-2.14-11-3.7-16.82-4.65Z"/>
    <path class="cls-5" d="M594.92,599.45c2.46,8.01,3.68,15.2,3.65,21.58-.04,6.44-1.55,11.83-4.56,16.18-3.04,4.39-7.75,7.5-14.17,9.3s-14.89,2.14-25.24.9c-10.24-1.22-19.57-3.68-27.94-7.37-8.41-3.71-15.81-8.46-22.17-14.23-6.35-5.78-11.66-12.39-15.89-19.82-4.22-7.39-7.4-15.38-9.54-23.93-2.83-11.28-3.1-20.64-.86-28.11,2.21-7.36,7.16-12.45,14.8-15.29,7.53-2.8,17.91-3.02,31.09-.7,13.2,2.33,24.41,6.3,33.75,11.94,9.29,5.61,16.95,12.58,23.02,20.93,6.09,8.39,10.78,17.91,14.07,28.61ZM514.5,587.48c1.74,6.49,4.08,12.22,7.03,17.18,2.96,4.97,6.6,8.99,10.92,12.04,4.31,3.04,9.37,4.95,15.15,5.71,5.96.79,10.31.15,13.08-1.92,2.75-2.05,4.2-5.3,4.37-9.73.17-4.41-.67-9.79-2.53-16.13-2.76-9.44-6.65-17.11-11.7-23.08-5.04-5.95-11.82-9.63-20.42-11.04-5.76-.95-10.09-.49-12.97,1.39-2.91,1.89-4.56,5-4.94,9.35-.39,4.38.28,9.78,2.01,16.23Z"/>
  </g>
</svg>